<svg xmlns="http://www.w3.org/2000/svg" viewBox="0 0 150 150"><defs><style>.cls-1{fill:#fff;stroke:#bdbdbd;}.cls-1,.cls-5{stroke-miterlimit:10;}.cls-2{fill:#3f51b5;}.cls-3{fill:#60605f;}.cls-4{fill:#ff5174;}.cls-5{fill:none;stroke:#fff;stroke-linecap:round;}.cls-6{fill:#1c1c1c;}</style></defs><title>validation_refinement</title><g id="apps_tools" data-name="apps/tools"><g id="panel5"><rect class="cls-1" x="79.4" y="82.92" width="35.36" height="57.43"/><rect class="cls-2" x="79.4" y="82.92" width="35.36" height="8.9"/><rect class="cls-3" x="95.84" y="128.14" width="14.4" height="6.18" rx="1" ry="1"/><circle class="cls-4" cx="97.09" cy="111.59" r="12.06"/><g id="check"><line class="cls-5" x1="92.87" y1="112.54" x2="96.42" y2="115.41"/><line class="cls-5" x1="102.37" y1="108.06" x2="96.54" y2="115.26"/></g></g><g id="panel4"><rect class="cls-1" x="34" y="82.94" width="35.36" height="57.43"/><rect class="cls-2" x="34" y="82.94" width="35.36" height="8.9"/><rect class="cls-6" x="39.3" y="97.66" width="24.77" height="4.45"/><rect class="cls-6" x="39.3" y="107.7" width="24.77" height="3.13"/><rect class="cls-6" x="39.3" y="112.98" width="24.77" height="3.13"/><rect class="cls-6" x="39.3" y="118.26" width="24.77" height="3.13"/><rect class="cls-3" x="49.67" y="128.16" width="14.4" height="6.18" rx="1" ry="1"/></g><g id="panel3"><rect class="cls-1" x="100.44" y="11.12" width="35.36" height="57.43"/><rect class="cls-2" x="100.44" y="11.12" width="35.36" height="8.9"/><rect class="cls-6" x="105.74" y="25.84" width="24.77" height="4.45"/><rect class="cls-6" x="105.74" y="34.07" width="11.12" height="16.71"/><rect class="cls-6" x="119.38" y="34.07" width="11.12" height="16.71"/><rect class="cls-3" x="116.1" y="56.34" width="14.4" height="6.18" rx="1" ry="1"/></g><g id="panel2"><rect class="cls-1" x="56.16" y="11.12" width="35.36" height="57.43"/><rect class="cls-2" x="56.16" y="11.12" width="35.36" height="8.9"/><rect class="cls-6" x="61.46" y="25.84" width="24.77" height="4.45"/><rect class="cls-6" x="61.46" y="34.07" width="24.77" height="16.71"/><rect class="cls-3" x="71.83" y="56.34" width="14.4" height="6.18" rx="1" ry="1"/></g><g id="panel1"><rect class="cls-1" x="11.31" y="11.17" width="35.36" height="57.43"/><rect class="cls-2" x="11.31" y="11.17" width="35.36" height="8.9"/><rect class="cls-6" x="16.61" y="25.88" width="24.77" height="4.45"/><rect class="cls-6" x="16.61" y="34.12" width="24.77" height="10.16"/><rect class="cls-6" x="16.61" y="46.4" width="24.77" height="3.06"/><rect class="cls-3" x="26.97" y="56.39" width="14.4" height="6.18" rx="1" ry="1"/></g></g></svg>