<svg xmlns="http://www.w3.org/2000/svg" viewBox="0 0 150 150"><defs><style>.cls-1{fill:none;}.cls-1,.cls-2,.cls-3,.cls-4{stroke:#757575;stroke-miterlimit:10;stroke-width:2px;}.cls-2{fill:#fff;}.cls-3{fill:#3f51b5;}.cls-4{fill:#ff5174;}</style></defs><title>validation_refinement</title><g id="execution"><path class="cls-1" d="M51.62,28.7v9.8m30.8-9.25V38.5m29.7-9.25V38.5m10,4h14.29V52.8m0,8.8V76.44m-10-18.69H101.12m-16.5,0H63.17m-11.55,4.4v6H64.27v4.42m.55,9.35v7.15m0,8.8v7.7m0,8.8v7.7m-13-53.86H35.13V89.09m-.55,8.8V105m7.05-47.29H15.78v-6.6"/><polygon class="cls-2" points="40.63 19.9 63.17 19.9 63.17 29.25 40.63 29.25 40.63 19.9 40.63 19.9"/><polygon class="cls-2" points="70.32 19.9 92.87 19.9 92.87 29.25 70.32 29.25 70.32 19.9 70.32 19.9"/><polygon class="cls-2" points="100.57 19.9 123.11 19.9 123.11 29.25 100.57 29.25 100.57 19.9 100.57 19.9"/><polygon class="cls-2" points="124.42 52.8 146.96 52.8 146.96 62.15 124.42 62.15 124.42 52.8 124.42 52.8"/><polygon class="cls-2" points="40.63 53.35 63.17 53.35 63.17 62.7 40.63 62.7 40.63 53.35 40.63 53.35"/><polygon class="cls-2" points="52.72 72.59 75.27 72.59 75.27 81.94 52.72 81.94 52.72 72.59 52.72 72.59"/><polygon class="cls-2" points="52.72 105.59 75.27 105.59 75.27 114.94 52.72 114.94 52.72 105.59 52.72 105.59"/><polygon class="cls-2" points="52.72 122.09 75.27 122.09 75.27 131.44 52.72 131.44 52.72 122.09 52.72 122.09"/><polygon class="cls-2" points="52.72 89.09 75.27 89.09 75.27 97.89 52.72 97.89 52.72 89.09 52.72 89.09"/><polygon class="cls-2" points="23.03 89.09 45.58 89.09 45.58 97.89 23.03 97.89 23.03 89.09 23.03 89.09"/><path class="cls-3" d="M136.69,93.49A8.53,8.53,0,1,0,128.16,85a8.51,8.51,0,0,0,8.53,8.52Z"/><path class="cls-2" d="M93.14,66.55A8.53,8.53,0,1,0,84.62,58a8.53,8.53,0,0,0,8.52,8.53Z"/><path class="cls-4" d="M34.3,122.09a8.53,8.53,0,1,0-8.52-8.53,8.53,8.53,0,0,0,8.52,8.53Z"/><path class="cls-2" d="M16.05,51.7A12.93,12.93,0,1,0,3.13,38.77,12.93,12.93,0,0,0,16.05,51.7Z"/><polygon class="cls-2" points="40.63 37.5 123.11 37.5 123.11 46.85 40.63 46.85 40.63 37.5 40.63 37.5"/></g></svg>