<svg xmlns="http://www.w3.org/2000/svg" viewBox="0 0 150 150"><defs><style>.cls-1{fill:none;stroke:#757575;stroke-linejoin:bevel;stroke-width:4.28px;stroke-dasharray:5.67 4.73;}.cls-2{fill:#ff5174;}</style></defs><title>icons-graphics</title><g id="icon_grphx" data-name="icon/grphx"><rect class="cls-1" x="15.84" y="14.38" width="118.32" height="118.32" rx="3" ry="3"/><path class="cls-2" d="M69.05,88l-.19-2.5c-.58-5.18,1.15-10.85,6-16.6,4.32-5.09,6.72-8.83,6.72-13.15,0-4.9-3.07-8.16-9.12-8.26a17,17,0,0,0-9.7,3l-2.3-6c3.17-2.3,8.64-3.84,13.73-3.84,11,0,16,6.82,16,14.11,0,6.53-3.65,11.23-8.26,16.7-4.22,5-5.76,9.22-5.47,14.11l.1,2.5Zm-2.11,13.43a5.67,5.67,0,0,1,5.76-6c3.36,0,5.66,2.49,5.66,6a5.71,5.71,0,1,1-11.42,0Z"/></g></svg>