<svg xmlns="http://www.w3.org/2000/svg" viewBox="0 0 150 150"><defs><style>.cls-1{fill:#424242;}.cls-2{fill:#3f51b5;}.cls-3{fill:#bdbdbd;}.cls-4{fill:#aaa;}.cls-5{fill:#303f9f;}.cls-6{fill:#ff5174;}.cls-7,.cls-8,.cls-9{fill:none;stroke:#c6e45d;stroke-linecap:round;stroke-miterlimit:10;stroke-width:2px;}.cls-8{stroke-dasharray:2.9 2.9;}.cls-9{stroke-dasharray:3.04 3.04;}</style></defs><title>validation_refinement</title><g id="designlayout2"><g id="layout"><rect class="cls-1" x="14.27" y="21.33" width="121.47" height="112.52"/><rect class="cls-2" x="14.27" y="21.33" width="121.47" height="15.11"/><rect class="cls-3" x="14.27" y="21.33" width="33.77" height="112.52"/><rect class="cls-4" x="14.27" y="21.33" width="33.77" height="31.38"/><rect class="cls-3" x="64.23" y="50.99" width="56.51" height="63.8"/><rect class="cls-5" x="64.23" y="50.99" width="56.51" height="7.62"/><rect class="cls-3" x="64.23" y="126.34" width="56.51" height="7.52"/><rect class="cls-1" x="14.27" y="52.72" width="37.89" height="11.8"/><circle class="cls-6" cx="31.05" cy="37.53" r="8.64"/><circle class="cls-6" cx="112.18" cy="28.89" r="4.24"/><circle class="cls-6" cx="124.97" cy="28.89" r="4.24"/></g><line class="cls-7" x1="49.1" y1="9" x2="49.1" y2="10.47"/><line class="cls-8" x1="49.1" y1="13.37" x2="49.1" y2="139.57"/><line class="cls-7" x1="49.1" y1="141.02" x2="49.1" y2="142.5"/><line class="cls-7" x1="13.22" y1="9.01" x2="13.22" y2="10.48"/><line class="cls-8" x1="13.22" y1="13.38" x2="13.22" y2="139.58"/><line class="cls-7" x1="13.22" y1="141.03" x2="13.22" y2="142.5"/><line class="cls-7" x1="5.15" y1="20.29" x2="6.66" y2="20.29"/><line class="cls-9" x1="9.7" y1="20.29" x2="141.82" y2="20.29"/><line class="cls-7" x1="143.34" y1="20.29" x2="144.85" y2="20.29"/><line class="cls-7" x1="5.15" y1="37.53" x2="6.66" y2="37.53"/><line class="cls-9" x1="9.7" y1="37.53" x2="141.82" y2="37.53"/><line class="cls-7" x1="143.34" y1="37.53" x2="144.85" y2="37.53"/></g></svg>