<svg xmlns="http://www.w3.org/2000/svg" viewBox="0 0 351.98 139.75"><defs><style>.cls-1{fill:#fff;}</style></defs><title>Flight_WhiteTypeFace</title><g id="LM_white_bg" data-name="LM white bg"><path class="cls-1" d="M90.54,104.26a10.06,10.06,0,0,1-1.84.8c-1.13.43-2.59.89-4.36,1.37s-3.77.91-6,1.3a39.27,39.27,0,0,1-6.61.57,23.86,23.86,0,0,1-8.33-1.37,19.45,19.45,0,0,1-6.27-3.68,15.4,15.4,0,0,1-4-5.4,16.14,16.14,0,0,1-1.37-6.56V35.48c0-4.7-.64-8.48-1.91-11.31s-4-4.26-8.18-4.26q-6,0-8.39,4a21.1,21.1,0,0,0-2.52,10.38v3.31H41.58V55.09H30.81v52.06H9V55.09H-.14V37.64H9V29.28a32.72,32.72,0,0,1,2.25-12.62,24,24,0,0,1,6.41-9,27.31,27.31,0,0,1,10.09-5.4A45.22,45.22,0,0,1,40.9.45,44.4,44.4,0,0,1,55.56,2.61a26.43,26.43,0,0,1,10.23,6.2,24.85,24.85,0,0,1,5.94,9.66A38.93,38.93,0,0,1,73.64,31V79.46A12.06,12.06,0,0,0,75.07,85a5,5,0,0,0,4.83,2.82,9.06,9.06,0,0,0,2.53-.37c.86-.23,1.68-.48,2.45-.71a17.78,17.78,0,0,0,2-.73,5.61,5.61,0,0,1,1-.36Z"/><path class="cls-1" d="M97.77,22.8V1.89h21.82V22.8Zm0,84.35V31.45h21.82v75.7Z"/><path class="cls-1" d="M162.41,107.44a27.77,27.77,0,0,1-12.95-3,30.83,30.83,0,0,1-10-8.22A38.72,38.72,0,0,1,133,84.08a46.41,46.41,0,0,1-2.32-14.86,47.3,47.3,0,0,1,2.46-15.5,39.11,39.11,0,0,1,6.81-12.4A31.87,31.87,0,0,1,150.41,33a30.06,30.06,0,0,1,13.5-3,27,27,0,0,1,14.25,3.68,27.5,27.5,0,0,1,9.76,10.17V31.45h19V102a37.92,37.92,0,0,1-3.07,15.57,33.65,33.65,0,0,1-8.52,11.75,37.89,37.89,0,0,1-13.09,7.43,51.88,51.88,0,0,1-16.77,2.59c-7.74,0-14.32-1.3-19.78-3.89a42.22,42.22,0,0,1-14.32-11.25l11.73-12.54A29.17,29.17,0,0,0,165.42,122a24.42,24.42,0,0,0,7.5-1.15,17.83,17.83,0,0,0,6.27-3.54,16.08,16.08,0,0,0,4.29-6.2,24,24,0,0,0,1.57-9.15V94.6a21.86,21.86,0,0,1-9.41,9.59A27.8,27.8,0,0,1,162.41,107.44Zm7.5-18.32a14.66,14.66,0,0,0,9-3,19.88,19.88,0,0,0,6.13-7.57V62.74a20.75,20.75,0,0,0-6.68-9.59,15.18,15.18,0,0,0-9.54-3.54,13,13,0,0,0-6.48,1.66,16.41,16.41,0,0,0-5,4.47A21.4,21.4,0,0,0,154,62.23a25.14,25.14,0,0,0-1.16,7.57,22.37,22.37,0,0,0,1.29,7.72,18.87,18.87,0,0,0,3.62,6.12,16.5,16.5,0,0,0,5.38,4A15.72,15.72,0,0,0,169.91,89.12Z"/><path class="cls-1" d="M290.88,107.15H269.06V64.61q0-7.35-2.73-10.81a9,9,0,0,0-7.5-3.46,11,11,0,0,0-4.16.93A16.58,16.58,0,0,0,250.31,54a23.85,23.85,0,0,0-3.89,4.26,19.2,19.2,0,0,0-2.73,5.47v43.41H221.87V1.89h21.82V44.13a28,28,0,0,1,10.44-10.45A28.36,28.36,0,0,1,268.38,30q7.22,0,11.66,2.67a19.18,19.18,0,0,1,6.82,6.78,26.88,26.88,0,0,1,3.2,9.23,62.86,62.86,0,0,1,.82,10Z"/><path class="cls-1" d="M351,103.11a82.76,82.76,0,0,1-10.29,3.75,40.72,40.72,0,0,1-11.66,1.73,26.8,26.8,0,0,1-7.71-1.08,17,17,0,0,1-6.34-3.46,16.21,16.21,0,0,1-4.3-6.28,25.13,25.13,0,0,1-1.57-9.37V48.89H300V31.45h9.13V7.37H331V31.45h14.59V48.89H331V80.47q0,3.75,1.77,5.41a6.35,6.35,0,0,0,4.5,1.66,15.72,15.72,0,0,0,5-.87,30.43,30.43,0,0,0,4.5-1.87Z"/></g></svg>