<svg xmlns="http://www.w3.org/2000/svg" xmlns:xlink="http://www.w3.org/1999/xlink" viewBox="0 0 1496.25 255.52"><defs><style>.cls-1{fill:url(#linear-gradient);}.cls-2{fill:url(#linear-gradient-2);}.cls-3{fill:#008da4;}.cls-4{fill:#88c4b8;}.cls-5{fill:url(#linear-gradient-3);}.cls-6{fill:#047187;}.cls-7{fill:url(#linear-gradient-4);}.cls-8{fill:url(#linear-gradient-5);}.cls-9{fill:url(#linear-gradient-6);}.cls-10{fill:url(#linear-gradient-7);}.cls-11{fill:url(#linear-gradient-8);}.cls-12{fill:url(#linear-gradient-9);}.cls-13{fill:url(#linear-gradient-10);}.cls-14{fill:url(#linear-gradient-11);}.cls-15{fill:url(#linear-gradient-12);}.cls-16{fill:url(#linear-gradient-13);}.cls-17{fill:url(#linear-gradient-14);}.cls-18{fill:url(#linear-gradient-15);}.cls-19{fill:url(#linear-gradient-16);}.cls-20{fill:url(#linear-gradient-17);}.cls-21{fill:url(#linear-gradient-18);}.cls-22{fill:url(#linear-gradient-19);}.cls-23{fill:#ffffdf;}.cls-24{fill:url(#linear-gradient-20);}.cls-25{fill:#045369;}.cls-26{fill:#eff7d7;}.cls-27{fill:url(#linear-gradient-21);}.cls-28{fill:url(#linear-gradient-22);}.cls-29{fill:url(#linear-gradient-23);}.cls-30{fill:url(#linear-gradient-24);}.cls-31{fill:#586dc6;opacity:0.7;}</style><linearGradient id="linear-gradient" x1="739.86" y1="210.83" x2="739.86" y2="-267.23" gradientUnits="userSpaceOnUse"><stop offset="0" stop-color="#88c4b8"/><stop offset="1" stop-color="#ebf7c6"/></linearGradient><linearGradient id="linear-gradient-2" x1="748.25" y1="56.37" x2="748.25" y2="-8.13" gradientUnits="userSpaceOnUse"><stop offset="0" stop-color="#166a7f"/><stop offset="1" stop-color="#88c4b8"/></linearGradient><linearGradient id="linear-gradient-3" x1="747.75" y1="350.12" x2="747.75" y2="-43.25" gradientUnits="userSpaceOnUse"><stop offset="0" stop-color="#88c4b8"/><stop offset="1" stop-color="#eff7d7"/></linearGradient><linearGradient id="linear-gradient-4" x1="603.26" y1="69.13" x2="607.76" y2="233.13" xlink:href="#linear-gradient-3"/><linearGradient id="linear-gradient-5" x1="385.43" y1="259.72" x2="388.77" y2="109.72" xlink:href="#linear-gradient-3"/><linearGradient id="linear-gradient-6" x1="919.54" y1="132.53" x2="919.54" y2="92.32" xlink:href="#linear-gradient-3"/><linearGradient id="linear-gradient-7" x1="1296.06" y1="157.24" x2="1296.06" y2="73.82" xlink:href="#linear-gradient-3"/><linearGradient id="linear-gradient-8" x1="610.25" y1="395.36" x2="610.25" y2="212.2" xlink:href="#linear-gradient"/><linearGradient id="linear-gradient-9" x1="514.25" y1="395.37" x2="514.25" y2="212.2" xlink:href="#linear-gradient"/><linearGradient id="linear-gradient-10" x1="492.04" y1="395.39" x2="492.04" y2="212.2" xlink:href="#linear-gradient"/><linearGradient id="linear-gradient-11" x1="290.58" y1="381.37" x2="290.58" y2="198.2" xlink:href="#linear-gradient"/><linearGradient id="linear-gradient-12" x1="1226.92" y1="395.37" x2="1226.92" y2="212.2" xlink:href="#linear-gradient"/><linearGradient id="linear-gradient-13" x1="1368.25" y1="325.28" x2="1368.25" y2="195.75" xlink:href="#linear-gradient"/><linearGradient id="linear-gradient-14" x1="1109.08" y1="395.37" x2="1109.08" y2="212.2" xlink:href="#linear-gradient"/><linearGradient id="linear-gradient-15" x1="982.42" y1="321.49" x2="982.42" y2="191.98" xlink:href="#linear-gradient"/><linearGradient id="linear-gradient-16" x1="527.25" y1="395.37" x2="527.25" y2="212.2" xlink:href="#linear-gradient"/><linearGradient id="linear-gradient-17" x1="283.25" y1="395.37" x2="283.25" y2="212.2" xlink:href="#linear-gradient"/><linearGradient id="linear-gradient-18" x1="141.75" y1="298.6" x2="141.75" y2="198.68" xlink:href="#linear-gradient"/><linearGradient id="linear-gradient-19" x1="47.75" y1="336.53" x2="47.75" y2="214.42" xlink:href="#linear-gradient"/><linearGradient id="linear-gradient-20" x1="450.11" y1="37.24" x2="529.44" y2="294.57" gradientUnits="userSpaceOnUse"><stop offset="0" stop-color="#16707f"/><stop offset="1" stop-color="#88c4b8"/></linearGradient><linearGradient id="linear-gradient-21" x1="875.26" y1="311.69" x2="863.23" y2="158.69" xlink:href="#linear-gradient-20"/><linearGradient id="linear-gradient-22" x1="958.58" y1="440.26" x2="933.58" y2="62.26" xlink:href="#linear-gradient-20"/><linearGradient id="linear-gradient-23" x1="1078.49" y1="235.95" x2="1078.49" y2="62.81" xlink:href="#linear-gradient-20"/><linearGradient id="linear-gradient-24" x1="1134.88" y1="223.34" x2="1134.88" y2="72.87" xlink:href="#linear-gradient-20"/></defs><title>moonscape</title><g id="land"><path class="cls-1" d="M23.52,147.94c44.94-.17,30.41-84.4,86.8-61.48s35.37-31.13,115.11-14.2,76.45-18.14,156-6.41,77-2.52,140.2.62,36.51,4,82.82,12.93-20.31-31.91,96.41,3.36,139.66-34.2,188.87-1.93,115.35-22.72,172,8,80.71-31.66,143,8,146.38,7.64,193.28,34.77,52.29,28.26,58.15,43.71S300.66,213.14,300.66,213.14Z"/><path class="cls-2" d="M1224.77,88.17c-8.86-1.06-15.63-1.85-17.85-2.07-3.87-.4-20.38,3.19-37.46,7.3-17.79,1.33-35.46,2.24-53.21,2.51-113,1.77-151,2.65-266-18.52-18.94-3.48-40.58-7.27-64-11-5.49-1.6-10.67-3.07-15.37-4.34-24.67-6.67-73.34-22.69-91.34-24.91-6.92-.86-27,4.29-49.05,10.94-80.94-5.45-160.28-2.86-211.28,18.71-194,24.69-301,0-419,0V153.3c385.55,5,1103.06,13.07,1496,9V66.81c-62.45,0-110.4-27.47-161-22.2C1298.53,48.44,1258.11,84.54,1224.77,88.17Z"/><path class="cls-3" d="M417,116.83s-2,2,13.75-15.75,43-32,55.5-32.75,29,2.5,43,2.5,20.75-8,40.75-7.25,18-3.25,48.75,6.25,30.75,45.25,30.75,45.25Z"/><path class="cls-3" d="M1228.75,117.37c33.5-1,126-42,169.5-40.5s58,27.5,79.5,39.5S1228.75,117.37,1228.75,117.37Z"/><path class="cls-3" d="M109.75,98.37c50.67,3.67,114.67,12.34,173.67,5.34s88.47-18.17,51-14.34C288.75,94,151.42,99.71,109.75,98.37Z"/><path class="cls-4" d="M1257.75,87.62c-47.57,32.48,121.75-41.25,82.5-33.75S1283.75,69.87,1257.75,87.62Z"/><path class="cls-4" d="M673.58,42.78c-7.75,2.14-41.64,5.16-31.56,10.32s40.75,24.95,38.08,18.64-8.15-14.63-7-19.93S682.92,40.2,673.58,42.78Z"/><path class="cls-4" d="M1336.24,115.65c-28.46-7.94-89.79-10.75-152.33-11.53q-5.84,1-11.7,1.83-14.16,2-28.41,3.32c-8.77.81-17.89.77-26.53,2.54s-15.85,5.85-24,8.54c-9,3-18.41,2.24-27.52,4.43-15.8,3.8-28.56,14.11-45.46,13.75-5.78-.13,22.23-13.84,26.25-17,10-7.71,37.18-13.25,47.5-20.5-3.94-.68-51.89,6.77-55.84,6-4.74-.88-9.49-1.63-14.24-2.28-50.56.27-122.12-4.23-240.42-7.76-30-14.45-80.34-17.58-141.42-17.58-60.43,0-110,6.5-115.06,14.77-34,1.15-5.44,22.23-101.77,10.69-1.33-4.95-3.68-6.58-6.75-7.88-18.15-7.64-67.25,2-78.25,5.5a28.34,28.34,0,0,0-10.8,6.58q-21.53,2.69-42.8,5.9C142.51,124,68.33,102.66.25,113.88v141h1496V113.9C1468.68,118.51,1407.85,118,1336.24,115.65Z"/><path class="cls-5" d="M1495.25,255.91v-48c-38.5,0-32.93-4.26-53.67-3.52-54,1.92-61.33-7.33-43.33-14s17.33-19.33-18-20.66-73.33-14-136-15.34a168.53,168.53,0,0,0-44.47,4.71c-20.28,6.42,40.72,18.79-34.58,16.62-4.7-.13-10-4-14.78-2.51-4.46,1.41-8.48,3.23-13.27,2.62a14.85,14.85,0,0,1-4.5-1.34c-5.77.71-11.56,1.29-17.36,1.62-4.69,3.68-12.11,2.48-17.74.56-10.67.06-4-6.94-34.16-4.08-6.82,1.59-13.54,2.75-19.26-3.07-2.55-2.6-1.77-6.48,1.08-8.43,2.69-1.83,6-2.59,9.07-3.65l1.27-.42a11.46,11.46,0,0,0-1.2-.87,55.18,55.18,0,0,0-9.78-4.82c-13.56-3.65-29.52-5.6-71-5.6-84,0-342,6.67-280,16.67s-6.66,38-52.66,42.66-82-6.67-122-6,14.66,14-69.34,13.34-99.33-22-174-18.67a303.11,303.11,0,0,0-46,5.63c-.07,1,.43,2.1,1.79,3.27a24.79,24.79,0,0,0,9.94,4.73c8.07,2.14-12.8,5.47-4.68,7.37,22.15,5.15,82.69,16.47,105.67,16.66,5.88,0-2.14,3.08-8.24,4.17-13.79,2.47-27.65,1.57-41.48-.08-13.2-1.56-26.39-3.14-39.36-6.12-13.63-3.13-26.52-8.26-40-11.92-6.46-1.76-24.88-.95-31.62-.71s-24.6,11.72-31.33,12c-76.17,3.12-13.21-7.68-29.33-11-42-8.67-91.54-9.82-120.67-9.82v48M947.5,177.62c-26,1.75-65.5-1.5-117-3.5s8.5-8.83,48.75-8.5C939.75,166.12,973.5,175.87,947.5,177.62Zm121.42,29.45c-8.75,5.37-44.91.39-52.84-5.86-5.42-4.29-2.07-10.86,3.29-6.63C1033.4,205.65,1048.08,206.54,1068.92,207.07Zm75.38,32.31c-45.64-7-27-13.83,28.28-15C1143.75,230.37,1175.25,244.12,1144.3,239.38Z"/><path class="cls-6" d="M738.42,114.37l102-3.83s-66-3.17-74-6.83-51.2-14.55-36.5-5.67C745.92,107.71,676.58,138.71,738.42,114.37Z"/><path class="cls-6" d="M533.42,100.37c-5.82.13.33,11.5-1.34,13.5s32.34,2.5,42.5.67S570.58,99.54,533.42,100.37Z"/><path class="cls-6" d="M55,110.58S158.25,112.71,175.58,127s62.34,6.33,118,.33,41.67-4.33-19.33-4S116,86.91,55,110.58Z"/><path class="cls-7" d="M702.25,106c-.27,1.64-1,7-20,7s-71.67.67-117.33,3.33-58.67-.33-58.67-.33,41.33-5.67,74-5,84-4,96.67-5S704.58,92,702.25,106Z"/><path class="cls-8" d="M642.25,148.37s-297-7.33-356.67-3-126,12.67-145.33,13.34,5.33-2.67,31.67-7.67,67.33-9.33,81.66-13.67,11-8.33,58.67-4.66S641.75,132.87,642.25,148.37Z"/><path class="cls-9" d="M885.92,122.87c32.17.39,103.33-2.83,104.83-6.66s-101.17-7.17-115-1.67S816.42,122,885.92,122.87Z"/><path class="cls-10" d="M1248.92,130.21c30.07,2.58,30,6.16,74.16,6.66s26.84,1.17,55.5-2.66,42.17-10.5,71-10.67,21.84-3-16.16-2-45.34,5.67-99.5,3.17.33-7-44.84-8-202.83-4.5-155.5-1.84,170.34,10.84,131.5,11.67S1217.92,127.54,1248.92,130.21Z"/><path class="cls-11" d="M610.25,206.71c-56.7,0-102.67,5.07-102.67,11.33s46,11.33,102.67,11.33S712.92,224.3,712.92,218,667,206.71,610.25,206.71Zm26.67,19.5c-15.34-.5,49-12.5,66.16-7C703.08,219.21,652.25,226.71,636.92,226.21Z"/><ellipse class="cls-12" cx="514.25" cy="219.71" rx="56" ry="11"/><path class="cls-13" d="M520,211.7c-30.93,0-56,4.58-56,10.23a2.18,2.18,0,0,0,.19.82C470.2,217,522.57,211.7,520,211.7Z"/><path class="cls-14" d="M290.58,230.71c-44.92,0-81.33,4.47-81.33,10,0,3.55,15.1,6.67,37.84,8.44,5.07-2.15,9.55-3.71,9.66-2.53a12.27,12.27,0,0,0,.67,3.22c10.13.55,21.35.87,33.16.87,13.18,0,25.62-.39,36.63-1.08-1.1-3.18-2.36-6.39-2-6.26s6.7,2.82,12.92,5.44c20.44-1.81,33.74-4.77,33.74-8.1C371.91,235.18,335.5,230.71,290.58,230.71Z"/><path class="cls-15" d="M1237.25,170.54c0,1.38-4.63,2.5-10.33,2.5s-10.34-1.12-10.34-2.5,4.63-2.5,10.34-2.5S1237.25,169.16,1237.25,170.54Z"/><path class="cls-16" d="M1387.25,159.71c0,2-38,2-38,0s8.51-3.67,19-3.67S1387.25,157.68,1387.25,159.71Z"/><ellipse class="cls-17" cx="1109.08" cy="192.54" rx="16.5" ry="2.5"/><path class="cls-18" d="M994.92,146.37c0,2.21-25,2.21-25,0s5.59-4,12.5-4S994.92,144.16,994.92,146.37Z"/><ellipse class="cls-19" cx="527.25" cy="191.62" rx="14.5" ry="2.75"/><ellipse class="cls-20" cx="283.25" cy="192.87" rx="16.5" ry="2.5"/><ellipse class="cls-21" cx="141.75" cy="184.87" rx="13.5" ry="3"/><path class="cls-22" d="M69.75,213.21c0,3.12-9.85,5.66-22,5.66s-22-2.54-22-5.66,9.85-5.67,22-5.67S69.75,210.08,69.75,213.21Z"/><path class="cls-6" d="M1061.58,244.71c0,.92-2.23,1.66-5,1.66s-5-.74-5-1.66,2.24-1.67,5-1.67S1061.58,243.79,1061.58,244.71Z"/><path class="cls-6" d="M1036.25,163c0,1.66-3.43,3-7.67,3s-7.66-1.34-7.66-3,3.43-3,7.66-3S1036.25,161.38,1036.25,163Z"/><path class="cls-6" d="M721.58,116.71c0,.73-4.77,1.33-10.66,1.33s-10.67-.6-10.67-1.33,4.78-1.33,10.67-1.33S721.58,116,721.58,116.71Z"/><ellipse class="cls-6" cx="358.25" cy="206.71" rx="14" ry="2"/><ellipse class="cls-6" cx="184.25" cy="207.04" rx="8" ry="1.67"/><path class="cls-6" d="M1457.17,193.63c0,1.47-3.88,2.66-8.67,2.66s-8.67-1.19-8.67-2.66,3.88-2.67,8.67-2.67S1457.17,192.15,1457.17,193.63Z"/><path class="cls-23" d="M633.37,178.12a11,11,0,0,0-20.24,0Z"/><path class="cls-24" d="M610.28,159c-21.25-3.75-21-23-21-23H386c-3.25,10-13.75,21.5-23.75,24.5S376,164,382.78,158s8,.75,4.25,7.5,12.5-2.75,18.75-8.5,8.25.5,7.5,6.25c-.1.78.42,1.13,1.37,1.21.85-1.68,1.73-3.33,2.6-4.87,5.25-9.25,7-11.75,7-11.75a34.23,34.23,0,0,1,17,12.18c4,.19,7.32,1.44,8.76,4.73,5.5,12.5,12.75,0,13.75-4s17-7.5,22.5,1.25c2.56,4.07,5.6,5.48,8.48,5.18,1-7.19,2.05-13.89,2.74-17.59,6.12-.62,12.86-.63,19.41,6.39a27.72,27.72,0,0,1,14.37,5c9,6.75,5,5.25,10,3.5s8.5-5.75,10-7,14.5,3.25,27.75,7-4.5-3-14.5-9.5,8.75-5.5,19.75.25S631.53,162.78,610.28,159Z"/><path class="cls-6" d="M589.85,136.17c0,4.55-45.67,8.25-102,8.25s-102-3.7-102-8.25,45.66-8.25,102-8.25S589.85,131.61,589.85,136.17Z"/><polygon class="cls-6" points="580.17 138.29 581.5 145.37 574.75 138.21 580.17 138.29"/><polygon class="cls-6" points="552.08 141.21 554 146.79 550.25 143.87 549.58 144.87 547 141.12 552.08 141.21"/><polygon class="cls-6" points="486.42 142.96 485.67 148.62 481.92 143.04 486.42 142.96"/><path class="cls-6" d="M441.92,142.37s-1.17,3.09-.92,3.09,3.08-.34,3.08-.34l3.17,8.75,2.33-11.41Z"/><path class="cls-25" d="M486.25,133.11c-14.39-.23-30.08-.36-46.5-.36-61,0-59.62,7.33-7,7.33,23.75,0,46-.27,64.95-.73C493.8,137.39,490,135.32,486.25,133.11Z"/><path class="cls-26" d="M457.06,149.06s-3.68,22-7.12,29.12C449.94,178.18,462.88,179.12,457.06,149.06Z"/><path class="cls-6" d="M527.08,151s10.09,23.83,29.92,24.5C557,175.54,542.92,169.21,527.08,151Z"/><path class="cls-26" d="M400.75,151s-11.5,19-19.75,21.83S389,163,400.75,151Z"/><path class="cls-26" d="M381.08,145.61S367.24,167.13,356,162.83,360.67,167.08,381.08,145.61Z"/><path class="cls-27" d="M983.42,198.87H750.75s-5,19.75-21,31,10.5-1.75,18.75-7,20-1.75,23.25,3.25,13.5,5.75,17,1.75,34.5-4.5,45.5,1.75,22.25,5.75,25,1.5,19.25,8.75,23,11.25,2.5-24.5,7.5-24.75,24.75,7.25,26.25,9.75,15.5,9,15.25,6.25-2.5-15,4-13.5,30,5.75,38.25,7.25,4.25-7.75,5.25-11.5,24.25,11.5,32,10S1004.17,223.62,983.42,198.87Z"/><path class="cls-28" d="M1009.44,217.21c15.66,2.74,25.06,6.49,25.2,10.88.31,10.46-52.12,20.54-117.12,22.51-29.53.89-56.58,0-77.33-2.31,21.67,3.79,55.34,5.63,93.07,4.49,65-2,117.43-12,117.12-22.5C1050.2,224.57,1034.36,219.93,1009.44,217.21Z"/><path class="cls-6" d="M921.38,220.87s7.62,22.25,18.37,23.38S930.75,237.5,921.38,220.87Z"/><path class="cls-26" d="M784.25,219.25s-.5,28.12-11.13,31S776.5,245.37,784.25,219.25Z"/><path class="cls-26" d="M745.5,211.62s-11,27-25.38,24.38S726.38,234.87,745.5,211.62Z"/><path class="cls-6" d="M954.94,189.49c-14.94,2.23-30.32-5.82-88-5.82-49.84,0-117.41,7.46-117.41,15.33s52.71,14.25,117.74,14.25S985,206.87,985,199C985,195.34,973.63,192,954.94,189.49Z"/><path class="cls-3" d="M855.75,188.37s50.63-.5,54,.25c17.63,6.38-6.37-1.87-14.75,2.63s-12.38.75-17.62,2.5-14.38-2.88-17.13-1.63S831.25,190.62,855.75,188.37Z"/><path class="cls-25" d="M814.38,193.26c-54.64.28-65.54,8.83-32.75,12.42a48.5,48.5,0,0,1,6.32-1.41c4.34-.59,8.13.63,12.35,1.43a66.07,66.07,0,0,0,12.26.65,109.25,109.25,0,0,0,14.23-.85C822.52,201.54,818.4,197.45,814.38,193.26Z"/><path class="cls-25" d="M825.67,193.62c-.33.26,9.83,11.59,15.41,12.25s13.67.84,13.67.84a64.68,64.68,0,0,0-11.83-7.59C836.83,196.29,827.75,192,825.67,193.62Z"/><polygon class="cls-6" points="959.63 204.75 967.75 216 965.5 201.75 959.63 204.75"/><polygon class="cls-6" points="909.88 209.25 914 216.25 914.88 209.12 909.88 209.25"/><polygon class="cls-6" points="838.5 210.87 834.38 221.25 831.75 214.12 826.88 215.5 822.25 210.25 838.5 210.87"/><path class="cls-29" d="M1084,132.18c.33-.81-4.16-2.12-4.16-2.12-4.15,4.27-9.5,10.43-5.25,8.68A54.42,54.42,0,0,0,1084,132.18Z"/><path class="cls-30" d="M1176.17,130.08c-1.5-.25-27.79-2.71-30.92-2.46-1.88.15-28.44,1.52-49.37,2.59-.4.88-6,1.53-6.92,2.33-1.59,1.42-3,8.13-5.46,14,2.72.32,9.79-6,13.12-6.58,6.2-1.17,10.5,1.75,17.26.37s10-.75,10.87,3.5,1.5,10.63,3.75,6.13-.12-7.25,5.5-7.38,8.5-1,12-1.12,2.62-2.88,8.38-1.5,6.75-3.92,13,.75c7.09,5.3,12.74,3.79,12.37,3.37-3.09-3.51-2.28-6-2.28-6s.91-2.36,3.91-1.11,5,.25,4.87-.13S1177.67,130.33,1176.17,130.08Z"/><path class="cls-6" d="M1177.08,130.29c0,2.46-21.9,4.46-48.92,4.46s-48.93-2-48.93-4.46,21.9-4.46,48.93-4.46S1177.08,127.83,1177.08,130.29Z"/><path class="cls-23" d="M1074,134.43s-3.31,5.32-5.25,5.25S1071.69,133.31,1074,134.43Z"/><path class="cls-23" d="M1082.6,140.68s-1.06,10.19-4.18,10.69S1078.35,145.75,1082.6,140.68Z"/><path class="cls-6" d="M1329.31,204.54l-5.89,2.83-2.64-3.47c-9.87-.64-20.56-1-31.72-1a432.62,432.62,0,0,0-54.9,3.21,19.7,19.7,0,0,1-5.58,4.09c-2.38,1-6.49,0-10.24-1.42-12.52,2.7-20,6.14-20,9.87,0,8.7,40.63,15.75,90.74,15.75s90.75-7,90.75-15.75C1379.81,212.47,1359.23,207.12,1329.31,204.54Z"/><path class="cls-6" d="M1240.62,228.37s-1.74,9-3.74,10.25,22.5.25,24.62-8.62S1240.62,228.37,1240.62,228.37Z"/><path class="cls-3" d="M1264.43,221c8.23,3.22,26.84,5.48,48.49,5.48,29.27,0,53-4.12,53-9.2a1.9,1.9,0,0,0-.38-1.1C1346.16,217.31,1290.75,220.22,1264.43,221Z"/><path class="cls-4" d="M1393.33,216.53c2.9,1.82,4.46,3.74,4.46,5.73,0,11.39-50.91,20.62-113.7,20.62a540,540,0,0,1-61.39-3.26c-16.58-1.93-19.74-.19-2.18,2.42,19.61,2.91,44.69,4.66,72,4.66,62.79,0,113.7-9.23,113.7-20.62C1406.25,222.63,1401.58,219.38,1393.33,216.53Z"/><path class="cls-23" d="M1195.58,220.87l-6.83,12s6.33-2.66,8.42-4.33S1194.75,224.46,1195.58,220.87Z"/><path class="cls-23" d="M1449.53,150.25s-4.5,15.67-8.5,14.67S1441,153.5,1449.53,150.25Z"/></g><g id="Layer_4" data-name="Layer 4"><path class="cls-31" d="M1496.25,66.81c-62.45,0-110.4-27.47-161-22.2-36.72,3.83-77.14,39.93-110.48,43.56-8.86-1.06-15.63-1.85-17.85-2.07s-8.85.9-17.33,2.7c-33.29-14-55.32,1.86-80.75,7.23-9.47.15-18.42.29-26.92.4a73,73,0,0,1-20.17-7.6c-40-21.67-84.64-.7-124.77,2.22-11.92-1.42-24.49-3.17-38.18-5.31a62,62,0,0,1-9-4.91c-17.6-11.54-31.84-10.06-48.21-5-16.77-3-35.38-6.25-55.25-9.4-5.49-1.6-10.67-3.07-15.37-4.34-24.67-6.67-73.34-22.69-91.34-24.91-6.92-.86-27,4.29-49.05,10.94-80.94-5.45-160.28-2.86-211.28,18.71-5.26.67-10.44,1.3-15.57,1.89-6.64-.7-14-1.63-22.23-2.85-79.57-11.73-76.29,23.35-156,6.41-30.05-6.38-45.79-2.68-56.76,3.18C108.25,72.21,55.45,66.81.25,66.81v189.1h1495v-1.08h1v-92.5h0Z"/></g></svg>