<svg id="LM_white_bg" data-name="LM white bg" xmlns="http://www.w3.org/2000/svg" viewBox="0 0 134.35 196.25"><defs><style>.cls-1{fill:#ff5174;}.cls-2{fill:#3f51b5;stroke:#3f51b5;}.cls-2,.cls-3{stroke-miterlimit:10;stroke-width:0.89px;}.cls-3{fill:#212120;stroke:#212120;}.cls-4{fill:#fff;}</style></defs><title>Flight_Logo_WhiteTypeFaceV-04</title><circle class="cls-1" cx="67.06" cy="33.53" r="33.38"/><path class="cls-2" d="M62.63,34.64v70.69a1.1,1.1,0,0,1-.58,1L2.31,139.15a1.11,1.11,0,0,1-1.5-1.53L60.55,34.08A1.12,1.12,0,0,1,62.63,34.64Z"/><path class="cls-3" d="M71.92,34.64v70.69a1.12,1.12,0,0,0,.58,1l59.74,32.85a1.11,1.11,0,0,0,1.5-1.53L74,34.08A1.12,1.12,0,0,0,71.92,34.64Z"/><path class="cls-4" d="M48.54,187.3a2,2,0,0,1-.36.17,8.53,8.53,0,0,1-.89.29c-.37.1-.78.2-1.24.28a8,8,0,0,1-1.37.12,4.5,4.5,0,0,1-1.69-.31A4,4,0,0,1,41.7,187a3.48,3.48,0,0,1-.81-1.21,3.81,3.81,0,0,1-.28-1.47v-14a8.69,8.69,0,0,0-.1-1.33,4.47,4.47,0,0,0-.4-1.25,2.7,2.7,0,0,0-.8-.94,2.18,2.18,0,0,0-1.33-.38,2.23,2.23,0,0,0-1.24.34,2.8,2.8,0,0,0-.83.91,4.23,4.23,0,0,0-.46,1.28,8,8,0,0,0-.14,1.47v1.58H38v3.52h-2.7v12.31h-4.1V175.57H29.13v-3.52h2.08v-2.64A6.79,6.79,0,0,1,33,164.34a6.66,6.66,0,0,1,4.93-1.77c2.32,0,4,.62,5.14,1.85a7,7,0,0,1,1.66,4.86V182a2.8,2.8,0,0,0,.09.7,2.41,2.41,0,0,0,.27.66,1.72,1.72,0,0,0,.46.47,1.16,1.16,0,0,0,.68.19,2.2,2.2,0,0,0,.56-.07,4,4,0,0,0,.55-.15l.45-.15a.89.89,0,0,1,.21-.07Z"/><path class="cls-4" d="M50.35,167.46v-4.54h4.1v4.54Zm0,20.42V170h4.1v17.92Z"/><path class="cls-4" d="M64.38,188a6,6,0,0,1-2.93-.71,7,7,0,0,1-2.28-2,9.6,9.6,0,0,1-1.47-2.89,12.08,12.08,0,0,1,0-7.11,9.94,9.94,0,0,1,1.53-3,7.26,7.26,0,0,1,2.34-2,6.38,6.38,0,0,1,3-.72,5.87,5.87,0,0,1,3.31.94,7.24,7.24,0,0,1,2.29,2.52V170h3.59V187a9.06,9.06,0,0,1-.66,3.55,7.57,7.57,0,0,1-1.85,2.67,8.33,8.33,0,0,1-2.82,1.68,10.66,10.66,0,0,1-3.55.58,8.58,8.58,0,0,1-7.54-3.73l2.24-2.43a6.43,6.43,0,0,0,2.31,2,6.53,6.53,0,0,0,3,.72,5.56,5.56,0,0,0,1.82-.3,4.08,4.08,0,0,0,1.53-.9,4.23,4.23,0,0,0,1-1.58A5.92,5.92,0,0,0,69.7,187v-2.26a5.7,5.7,0,0,1-2.23,2.38A6,6,0,0,1,64.38,188Zm1.4-3.65a3.52,3.52,0,0,0,1.29-.24,4.32,4.32,0,0,0,1.12-.65,5.48,5.48,0,0,0,.9-1,4.31,4.31,0,0,0,.61-1.16V177A5.56,5.56,0,0,0,68,174.51a3.8,3.8,0,0,0-2.45-1,3.42,3.42,0,0,0-1.73.46,4.24,4.24,0,0,0-1.33,1.24,5.87,5.87,0,0,0-.85,1.76,7.36,7.36,0,0,0-.29,2.05,6.25,6.25,0,0,0,.34,2.05,5.47,5.47,0,0,0,.93,1.68A4.51,4.51,0,0,0,64,183.92,3.89,3.89,0,0,0,65.78,184.33Z"/><path class="cls-4" d="M92.4,187.88H88.29v-10a5.51,5.51,0,0,0-.7-3.13,2.3,2.3,0,0,0-2-1,2.91,2.91,0,0,0-1.17.27,4.42,4.42,0,0,0-1.16.77,6.52,6.52,0,0,0-1,1.18,4.78,4.78,0,0,0-.67,1.51v10.46H77.48v-25h4.11v10.36a6.62,6.62,0,0,1,2.4-2.69,6.3,6.3,0,0,1,3.35-.94,4.8,4.8,0,0,1,2.54.6,4.27,4.27,0,0,1,1.54,1.59,7.17,7.17,0,0,1,.76,2.26,15.82,15.82,0,0,1,.22,2.6Z"/><path class="cls-4" d="M105.5,187a17,17,0,0,1-2,.82,7.94,7.94,0,0,1-2.53.41,5.27,5.27,0,0,1-1.61-.24,3.51,3.51,0,0,1-1.32-.77,3.89,3.89,0,0,1-.9-1.37,5.52,5.52,0,0,1-.34-2v-10.3H94.69V170h2.08v-5.81h4.11V170h3.4v3.52h-3.4v8.76a1.68,1.68,0,0,0,.46,1.35,1.63,1.63,0,0,0,1.1.39,3.35,3.35,0,0,0,1.25-.24c.41-.16.74-.29,1-.41Z"/></svg>