<svg xmlns="http://www.w3.org/2000/svg" xmlns:xlink="http://www.w3.org/1999/xlink" viewBox="0 0 150.75 150.75"><defs><style>.cls-1,.cls-2{fill:none;}.cls-2,.cls-7{clip-path:url(#clip-path);}.cls-2{clip-rule:evenodd;}.cls-3{clip-path:url(#clip-path-6);}.cls-4{fill:#757575;}.cls-5{clip-path:url(#clip-path-7);}.cls-6{clip-path:url(#clip-path-8);}.cls-8{fill:#ff5174;stroke:#ff5174;}.cls-12,.cls-13,.cls-8{stroke-miterlimit:10;}.cls-9{clip-path:url(#clip-path-10);}.cls-10{clip-path:url(#clip-path-11);}.cls-11,.cls-12{fill:#c6e45d;}.cls-12{stroke:#c6e45d;}.cls-13{fill:#3f51b5;stroke:#3f51b5;}</style><clipPath id="clip-path"><rect class="cls-1" x="10.82" y="10.03" width="129.11" height="128.47"/></clipPath><clipPath id="clip-path-6"><path class="cls-2" d="M82.83,76.21H102.3a3.25,3.25,0,0,1,3.24,3.25v55.8a3.24,3.24,0,0,1-3.24,3.24H82.83a3.24,3.24,0,0,1-3.24-3.24V79.46a3.25,3.25,0,0,1,3.24-3.25Z"/></clipPath><clipPath id="clip-path-7"><path class="cls-2" d="M117.22,46.37h19.47a3.24,3.24,0,0,1,3.24,3.24v85.65a3.24,3.24,0,0,1-3.24,3.24H117.22a3.24,3.24,0,0,1-3.24-3.24V49.61a3.24,3.24,0,0,1,3.24-3.24Z"/></clipPath><clipPath id="clip-path-8"><path class="cls-2" d="M49.1,96.33H67.91a3.25,3.25,0,0,1,3.25,3.24v35.69a3.25,3.25,0,0,1-3.25,3.24H49.1a3.24,3.24,0,0,1-3.25-3.24V99.57a3.24,3.24,0,0,1,3.25-3.24Z"/></clipPath><clipPath id="clip-path-10"><path class="cls-2" d="M15.36,106.06H33.52a3.24,3.24,0,0,1,3.25,3.24v26a3.24,3.24,0,0,1-3.25,3.24H15.36a3.25,3.25,0,0,1-3.25-3.24v-26a3.25,3.25,0,0,1,3.25-3.24Z"/></clipPath><clipPath id="clip-path-11"><path class="cls-2" d="M13.52,103.05q20-4.93,29.89-9.17c13.33-5.7,28-14.43,36.78-21.63a294.38,294.38,0,0,0,45.58-43.1l6.8,5.76a1.3,1.3,0,0,0,1.82-.15,1.28,1.28,0,0,0,.29-.61l4-21.34A1.29,1.29,0,0,0,137,11.35L117,18.14a1.31,1.31,0,0,0-.81,1.65,1.41,1.41,0,0,0,.31.49l6,6.13Q110.39,42.93,80.19,66.84C71.88,74,56,83.45,46.06,88.41q-12.12,6.07-32.54,10.7l-.46.25a2,2,0,0,0,.46,3.69Z"/></clipPath></defs><title>validation_refinement</title><g id="takeoff"><g class="cls-3"><rect class="cls-4" x="76.35" y="72.97" width="32.44" height="68.77"/></g><g class="cls-5"><rect class="cls-4" x="110.73" y="43.12" width="32.44" height="98.62"/></g><g class="cls-6"><rect class="cls-4" x="42.61" y="93.08" width="31.79" height="48.66"/></g><rect class="cls-1" x="10.82" y="10.03" width="129.11" height="128.47"/><g class="cls-7"><path class="cls-8" d="M16.14,80.75a8.39,8.39,0,0,1-5.39-2.14L10,78l1-.22a19.77,19.77,0,0,0,4.13-1.46,14.48,14.48,0,0,0,3.84-2.71,1.36,1.36,0,0,0,.25-.34c.78-1.4.58-1.71.58-1.72s-.24-.21-1.44.18A12.59,12.59,0,0,0,15,73.48l-.8.52,0-1a9.07,9.07,0,0,1,.62-3.33A10.67,10.67,0,0,1,17.18,66a17,17,0,0,1,2.51-1.65,15.11,15.11,0,0,0,3.52-2.48A11,11,0,0,0,20,62l-1.38.2.94-1c2.78-3,5.06-4.51,7-4.51A10.91,10.91,0,0,1,37.27,67.45c0,5.89-5.17,12.14-10.85,13.12h-.08c-.48,0-1.37-.07-2.65-.19l-1.56-.16,1.36-.77a6.79,6.79,0,0,0,2-1.55A3.26,3.26,0,0,0,26.08,76,8.25,8.25,0,0,0,23,77.17a14.37,14.37,0,0,0-1.72,1.28,9.23,9.23,0,0,1-3.5,2.12A7.86,7.86,0,0,1,16.14,80.75Z"/></g><g class="cls-9"><rect class="cls-4" x="8.87" y="102.81" width="31.14" height="38.93"/></g><g class="cls-10"><path class="cls-11" d="M142.41,106.79H8.27V7.53H142.41Zm-133.14-1H141.41V8.53H9.27Z"/></g><g class="cls-7"><path class="cls-12" d="M13.51,103.57l-.12,0a2.51,2.51,0,0,1-1.58-1.23,2.5,2.5,0,0,1,1-3.38l.58-.29C26.92,95.56,37.83,92,45.83,88c10.54-5.28,26.05-14.61,34-21.51,19.81-15.69,33.93-29.14,42-40l-5.71-5.83a1.85,1.85,0,0,1-.42-.68,1.8,1.8,0,0,1,1.12-2.28l19.93-6.8a1.87,1.87,0,0,1,.91-.06,1.79,1.79,0,0,1,1.44,2.09l-4,21.35a1.87,1.87,0,0,1-.39.83,1.78,1.78,0,0,1-1.23.63,1.82,1.82,0,0,1-1.31-.42l-6.42-5.43A295.84,295.84,0,0,1,80.49,72.65c-9,7.38-23.81,16.1-36.89,21.68-6.6,2.83-16.68,5.92-30,9.21Z"/></g><path class="cls-13" d="M101.83,11.23a1.72,1.72,0,0,0-1.14-.75l-.28,0h0c-14-.48-25.07,1.49-33,5.86A65,65,0,0,0,46.75,34.35a.78.78,0,0,1-.69.31L36.43,34a3.76,3.76,0,0,0-2.65.87l-12,10A3.75,3.75,0,0,0,21.11,50l.63.86A3.71,3.71,0,0,0,26.4,52l7.76-3.76a1.37,1.37,0,0,1,1-.07,3.72,3.72,0,0,0-.3,4.85l8.32,11.07a3.78,3.78,0,0,0,4.55,1.16l.23-.11a2.72,2.72,0,0,1-.61,1.32l-5.47,6.45a3.74,3.74,0,0,0-.06,4.78l.52.63a3.75,3.75,0,0,0,5,.73l13-8.87A3.76,3.76,0,0,0,61.86,68l2.27-9.49a.81.81,0,0,1,.51-.57C71.51,55.48,79,50.25,86.92,42.39a59.47,59.47,0,0,0,15.19-29.81A1.8,1.8,0,0,0,101.83,11.23ZM75.37,37.14a6,6,0,1,1,6-6A6,6,0,0,1,75.37,37.14Z"/></g></svg>