<svg xmlns="http://www.w3.org/2000/svg" viewBox="0 0 98 98"><defs><style>.cls-1{fill:#bdbdbd;}</style></defs><title>tricia-icon</title><g id="eggy"><path class="cls-1" d="M87.88,0H10.12A10.12,10.12,0,0,0,0,10.12V87.88A10.12,10.12,0,0,0,10.12,98H87.88A10.12,10.12,0,0,0,98,87.88V10.12A10.12,10.12,0,0,0,87.88,0ZM69.75,61.83c-2.86,0-6-.33-7.08.92a23.81,23.81,0,0,1-9.84,6.33,50.46,50.46,0,0,1-16.58,3.17,60.36,60.36,0,0,1-18.08-2.67c-4.87-1.66-6.69-5.44-6.69-8,0-4.79,4.6-3.79,4.77-10.6.11-4.45,5.1-8.29,12.36-10.09h0a5,5,0,0,0,.4-.92,16.41,16.41,0,0,1,3.86-7c2.47-2.77,7.57-5.1,12.68-5.79C54.24,26,63.56,29,66.17,33.7a4.74,4.74,0,0,0,.32.43c.12.15.36.39.4.43a1,1,0,0,0,.51.27,9.71,9.71,0,0,0,1.56.34C78.42,36.54,85.49,42.1,85.49,49S78.79,61.83,69.75,61.83Z"/><path class="cls-1" d="M66.18,35l-.12-.23c-1.7-4.16-10.78-8-20.37-6.69C40.8,28.78,36,31,33.62,33.58A16,16,0,0,0,29.76,40a4.12,4.12,0,0,1-.21.56l-.19.52a3.14,3.14,0,0,0,0,1.58c.31,2.26.63,4,3.66,5.2,3.85,1.47,11,2,16.75,1.18,5-.67,11.43-1.42,14.37-3.83,3.13-2.56,2.55-6.83,2.21-9.47A2,2,0,0,0,66.18,35Z"/></g></svg>