<svg id="eggy" xmlns="http://www.w3.org/2000/svg" viewBox="0 0 31 31"><defs><style>.cls-1{fill:#ff5174;}</style></defs><title>tricia-icon</title><path class="cls-1" d="M27.8,0H3.2A3.2,3.2,0,0,0,0,3.2V27.8A3.2,3.2,0,0,0,3.2,31H27.8A3.2,3.2,0,0,0,31,27.8V3.2A3.2,3.2,0,0,0,27.8,0ZM22.06,19.56c-.9,0-1.89-.11-2.24.29a7.44,7.44,0,0,1-3.11,2,15.83,15.83,0,0,1-5.24,1A19,19,0,0,1,5.75,22a2.85,2.85,0,0,1-2.12-2.54c0-1.52,1.46-1.2,1.51-3.36,0-1.4,1.61-2.62,3.91-3.19h0a1.51,1.51,0,0,0,.13-.29,5.18,5.18,0,0,1,1.22-2.22,7.05,7.05,0,0,1,4-1.83c2.75-.37,5.69.59,6.52,2.08a1.13,1.13,0,0,0,.1.13l.13.14a.32.32,0,0,0,.16.09,2.36,2.36,0,0,0,.49.1c3,.44,5.23,2.2,5.23,4.38S24.92,19.56,22.06,19.56Z" transform="translate(0 0)"/><path class="cls-1" d="M20.8,11.25l0-.08c-.54-1.31-3.27-2.65-6.31-2.24a6.61,6.61,0,0,0-3.81,1.72,4.86,4.86,0,0,0-1.08,2.1,1.73,1.73,0,0,1-.06.18l-.06.16a1,1,0,0,0,0,.5c.1.72.05,1.2,1,1.57a12.79,12.79,0,0,0,5.3.37c1.56-.21,3.61-.45,4.54-1.21s.68-2,.57-2.87A.71.71,0,0,0,20.8,11.25Z" transform="translate(0 0)"/></svg>